<?xml version="1.0" encoding="UTF-8" standalone="no"?>
<svg width="87px" height="100px" viewBox="0 0 87 100" version="1.1" xmlns="http://www.w3.org/2000/svg" xmlns:xlink="http://www.w3.org/1999/xlink">
    <!-- Generator: Sketch 41 (35326) - http://www.bohemiancoding.com/sketch -->
    <title>Page 1 Copy</title>
    <desc>Created with Sketch.</desc>
    <defs></defs>
    <g id="Brand-Guidelines" stroke="none" stroke-width="1" fill="none" fill-rule="evenodd">
        <g id="Desktop-HD-Copy" transform="translate(-334.000000, -706.000000)" fill="#FFFFFF">
            <g id="Group" transform="translate(57.000000, 265.000000)">
                <g id="symbol" transform="translate(0.000000, 365.000000)">
                    <path d="M347.454787,135.462136 L321.63636,150.368532 C321.121534,150.665575 320.486748,150.665575 319.972636,150.368532 L294.153495,135.462136 C293.638669,135.165093 293.321633,134.615993 293.321633,134.021193 L293.321633,104.208401 C293.321633,103.614316 293.638669,103.064501 294.153495,102.767459 L319.972636,87.8610622 C320.486748,87.5640196 321.121534,87.5640196 321.63636,87.8610622 L347.454787,102.767459 C347.969613,103.064501 348.286649,103.614316 348.286649,104.208401 L348.286649,134.021193 C348.286649,134.615993 347.969613,135.165093 347.454787,135.462136 M363.75,118.999836 C363.75,94.6930415 343.581808,75.0960858 319.065799,76.0321983 C296.850441,76.8797693 278.507348,95.3292553 277.774024,117.548897 C277.242775,133.624899 285.567822,147.760127 298.213553,155.571061 L298.191417,155.608906 L332.796878,175.472914 L348.240236,166.573062 L335.814431,159.396199 C352.190331,153.321107 363.75,137.761359 363.75,118.999836" id="Page-1-Copy"></path>
                </g>
            </g>
        </g>
    </g>
</svg>